<svg xmlns="http://www.w3.org/2000/svg" viewBox="0 0 1200 800" font-family="monospace">
  <defs>
    <linearGradient id="skyb" x1="0" y1="0" x2="0" y2="1">
      <stop offset="0" stop-color="#0b1119"/>
      <stop offset="1" stop-color="#05070b"/>
    </linearGradient>
    <radialGradient id="floodb" cx="0.3" cy="0.55" r="0.5">
      <stop offset="0" stop-color="#f3a93c" stop-opacity="0.2"/>
      <stop offset="1" stop-color="#f3a93c" stop-opacity="0"/>
    </radialGradient>
  </defs>
  <rect width="1200" height="800" fill="url(#skyb)"/>
  <rect width="1200" height="800" fill="url(#floodb)"/>
  <rect y="610" width="1200" height="190" fill="#070a0e"/>
  <line x1="0" y1="610" x2="1200" y2="610" stroke="#1b212b" stroke-width="2"/>
  <!-- same cinema, seen from the south-east: facade recedes to the left -->
  <polygon points="950,260 440,200 440,610 950,610" fill="#11161e"/>
  <polygon points="440,200 190,250 190,610 440,610" fill="#0c1117"/>
  <rect x="440" y="470" width="510" height="60" fill="#05070b" stroke="#2a3340"/>
  <polygon points="440,460 190,500 190,540 440,520" fill="#05070b" stroke="#2a3340"/>
  <!-- vertical blade sign on the near (right) corner -->
  <rect x="842" y="120" width="58" height="360" fill="#0a0e14" stroke="#36414f"/>
  <text x="871" y="170" fill="#d8d2c0" font-size="34" text-anchor="middle" letter-spacing="2" transform="rotate(90 871 170)" opacity="0.85">L U M I N A</text>
  <g fill="#1d2430">
    <rect x="470" y="300" width="40" height="48"/><rect x="530" y="296" width="40" height="48"/>
    <rect x="590" y="292" width="40" height="48"/><rect x="650" y="288" width="40" height="48"/>
    <rect x="710" y="284" width="40" height="48"/><rect x="770" y="280" width="40" height="48"/>
    <rect x="830" y="276" width="40" height="48"/>
  </g>
  <!-- dust haze -->
  <ellipse cx="560" cy="600" rx="260" ry="60" fill="#d8d2c0" opacity="0.05"/>
  <!-- excavator silhouette from the other side -->
  <g fill="#05070b" stroke="#222a35" stroke-width="2">
    <rect x="300" y="520" width="120" height="70"/>
    <line x1="320" y1="520" x2="210" y2="430" stroke="#222a35" stroke-width="8"/>
    <line x1="210" y1="430" x2="180" y2="500" stroke="#222a35" stroke-width="8"/>
    <circle cx="330" cy="595" r="16"/><circle cx="390" cy="595" r="16"/>
  </g>
  <g stroke="#f3a93c" stroke-width="1.5" opacity="0.9">
    <circle cx="540" cy="360" r="26" fill="none"/>
    <line x1="540" y1="324" x2="540" y2="396"/>
    <line x1="504" y1="360" x2="576" y2="360"/>
  </g>
  <rect x="0" y="752" width="1200" height="48" fill="#05070b" opacity="0.9"/>
  <text x="20" y="782" fill="#6f7989" font-size="20" letter-spacing="2">EXHIBIT B // STATION SE // 02:18 // FICTIONAL RECONSTRUCTION</text>
</svg>
